<?xml version="1.0" standalone="no"?>
<!DOCTYPE svg PUBLIC "-//W3C//DTD SVG 20010904//EN"
 "http://www.w3.org/TR/2001/REC-SVG-20010904/DTD/svg10.dtd">
<svg version="1.0" xmlns="http://www.w3.org/2000/svg"
 width="540.000000pt" height="540.000000pt" viewBox="0 0 540.000000 540.000000"
 preserveAspectRatio="xMidYMid meet">
<metadata>
Created by potrace 1.14, written by Peter Selinger 2001-2017
</metadata>
<g transform="translate(0.000000,540.000000) scale(0.100000,-0.100000)"
fill="#000000" stroke="none">
<path d="M2170 4670 c0 -17 -6 -72 -14 -123 -17 -108 -30 -395 -15 -332 15 65
39 265 39 332 0 34 4 64 9 68 11 6 41 -21 41 -38 0 -11 28 -87 57 -155 8 -17
20 -51 28 -75 7 -23 23 -67 34 -97 26 -67 26 -82 2 -104 -51 -46 -168 -51
-201 -8 -14 18 -16 18 -65 -10 -67 -40 -75 -51 -68 -107 5 -43 3 -47 -23 -61
-53 -26 -171 -119 -214 -167 -218 -247 -314 -605 -281 -1053 18 -242 77 -491
158 -670 78 -173 143 -281 221 -365 28 -32 52 -63 52 -69 0 -6 -20 -23 -43
-38 -57 -36 -79 -61 -97 -111 -14 -38 -21 -44 -75 -63 -123 -43 -178 -68 -233
-105 -44 -30 -48 -31 -72 -16 -122 77 -227 107 -371 107 -246 0 -507 -118
-650 -294 -61 -75 -130 -214 -160 -321 -25 -91 -33 -297 -12 -350 6 -16 14
-42 17 -58 l6 -27 588 2 587 3 3 104 c2 93 -7 207 -24 298 l-6 33 48 -26 c130
-69 143 -96 144 -281 l0 -133 1783 0 1782 0 0 475 c-1 260 -3 476 -5 477 -55
40 -186 106 -260 131 -144 48 -345 62 -480 33 -110 -23 -129 -30 -221 -76 -93
-47 -139 -80 -216 -153 -57 -55 -57 -55 -82 25 -33 101 -69 156 -130 197 -59
41 -171 84 -246 96 -79 12 -85 15 -99 48 -29 72 -136 128 -280 149 -47 6 -86
16 -86 21 0 5 13 24 29 42 40 46 108 172 137 256 14 39 32 123 41 187 15 101
15 139 5 301 -7 102 -12 231 -12 286 0 181 -29 439 -62 560 -21 76 -31 110
-39 130 -4 11 -15 42 -24 68 -29 90 -105 212 -186 298 -74 78 -208 146 -327
165 -36 6 -46 13 -64 45 -21 37 -24 39 -73 39 -55 0 -75 12 -75 44 0 19 -28
103 -59 181 -7 17 -25 68 -41 115 -39 120 -80 200 -102 200 -13 0 -18 -8 -18
-30z m138 -607 c-21 -2 -55 -2 -75 0 -21 2 -4 4 37 4 41 0 58 -2 38 -4z m-328
-373 c44 -23 32 -123 -20 -160 -36 -25 -76 -25 -117 0 -65 39 -32 119 62 154
50 18 52 18 75 6z m-171 -249 c24 -15 1 -72 -39 -98 -60 -40 -83 -57 -107 -83
l-23 -25 0 25 c0 36 43 121 76 152 25 22 40 30 74 37 3 0 11 -3 19 -8z m852
-47 c31 -30 42 -70 32 -127 -12 -76 -118 -157 -204 -157 -41 0 -106 39 -134
82 -36 54 -44 138 -18 188 16 31 24 36 68 42 28 3 90 4 139 2 80 -4 93 -7 117
-30z m-559 -42 c36 -34 42 -45 45 -93 4 -47 1 -60 -25 -100 -54 -84 -156 -112
-242 -66 -52 27 -80 75 -80 137 0 91 17 106 154 140 99 25 102 25 148 -18z
m-348 -432 c43 -18 44 -20 60 -92 37 -158 34 -218 -9 -218 -35 0 -110 72 -136
129 -22 48 -49 189 -49 253 l0 37 45 -45 c25 -25 65 -53 89 -64z m-1467 -2172
c-3 -8 -6 -5 -6 6 -1 11 2 17 5 13 3 -3 4 -12 1 -19z"/>
<path d="M2484 3317 c-12 -32 0 -72 23 -75 43 -6 42 78 -1 86 -9 2 -19 -3 -22
-11z"/>
<path d="M1967 3274 c-13 -13 -7 -61 8 -74 26 -22 47 -4 43 37 -2 29 -8 39
-23 41 -12 2 -24 0 -28 -4z"/>
</g>
</svg>
